<svg width="1920" height="1080" viewBox="0 0 1920 1080" fill="none" xmlns="http://www.w3.org/2000/svg">
<g clip-path="url(#clip0_181192_17007)">
<rect width="1920" height="1080" fill="black"/>
<path d="M61.2132 -118.713L-3.5 -54V-151L61.2132 -215.713C66.8393 -221.339 74.4699 -224.5 82.4264 -224.5H160.574C168.53 -224.5 176.161 -221.339 181.787 -215.713L223.787 -173.713C235.503 -161.997 254.497 -161.997 266.213 -173.713L350.213 -257.713C355.839 -263.339 363.47 -266.5 371.426 -266.5H447.074C455.03 -266.5 462.661 -263.339 468.287 -257.713L856.787 130.787C868.503 142.503 887.497 142.503 899.213 130.787L908.787 121.213C920.503 109.497 939.497 109.497 951.213 121.213L973.213 143.213C978.839 148.839 982 156.47 982 164.426V303.574C982 311.53 978.839 319.161 973.213 324.787L964.787 333.213C959.161 338.839 956 346.47 956 354.426V409.5C956 426.069 942.569 439.5 926 439.5H870.5C853.931 439.5 840.5 426.069 840.5 409.5V236.926C840.5 228.97 837.339 221.339 831.713 215.713L564.008 -51.9919C558.251 -57.7486 550.402 -60.9184 542.263 -60.774L257.737 -55.726C249.598 -55.5816 241.749 -58.7514 235.992 -64.5081L181.787 -118.713C176.161 -124.339 168.53 -127.5 160.574 -127.5H82.4264C74.4699 -127.5 66.8393 -124.339 61.2132 -118.713Z" fill="#2B6178"/>
<path d="M900 448L900 697.486C900 703.052 901.548 708.508 904.472 713.244L952.66 791.309C957.594 799.303 958.499 809.147 955.105 817.906L860.44 1062.2C855.474 1075.02 859.853 1089.57 871.067 1097.52L1048.28 1223.12C1054.52 1227.54 1058.84 1234.17 1060.35 1241.67L1111.15 1493.92C1113.97 1507.93 1126.27 1518 1140.56 1518L1265.77 1518C1274.78 1518 1283.3 1522.04 1289 1529.01L1537.23 1832.72C1541.61 1838.07 1544 1844.78 1544 1851.7L1544 2022" stroke="#2B6178" stroke-width="30"/>
<path d="M1011.74 1741.26L873.772 1741.26M452.215 1741.26L452.215 1873.47M452.215 1741.26L452.216 1490.24M452.215 1741.26L540.359 1741.26M540.359 1490.24L540.359 1741.26M540.359 1741.26L540.359 1873.47M540.359 1741.26L638.084 1741.26M638.084 1873.47L638.084 1741.26M638.084 1741.26L873.772 1741.26M638.084 1633.95L638.084 1490.24M873.772 1873.47L873.772 1741.26M873.772 1741.26L873.772 1373.35M873.772 1120.42L873.772 1373.35M873.772 1373.35L1021.32 1373.35M1686.23 1490.24L1329.82 1490.24M1686.23 1361.86L1112.34 1361.86C1099.11 1361.86 1088.38 1351.13 1088.38 1337.9L1088.38 1237.31M1264.67 150.838L1264.67 989.162C1264.67 1002.39 1253.95 1013.11 1240.72 1013.11L1238.8 1013.11C1225.57 1013.11 1214.85 1002.39 1214.85 989.162L1214.85 150.838M1032.81 -50.3593L1032.81 398.024M992.575 398.024L992.575 1013.11M835.449 -172.994L937.006 -172.994M1009.82 -172.994L937.006 -172.994M1341.32 -378.024L937.006 -378.024M937.006 -378.024L878.563 -436.467M937.006 -378.024L937.006 -251.557M937.006 -172.994L937.006 -251.557M835.449 -251.557L937.006 -251.557M937.006 -251.557L1009.82 -251.557M1506.11 -50.3594L1506.11 1013.11" stroke="#222222" stroke-width="9.58084" stroke-linecap="round"/>
<path d="M1327.9 -805.33V-610.561C1327.9 -597.856 1322.86 -585.672 1313.87 -576.688L1251.26 -514.072M228.024 1894.55V1635.87M1251.26 -514.072H1340.84M1251.26 -514.072H1007.9M1734.61 -818.264L1444.45 -528.103C1435.47 -519.119 1423.28 -514.072 1410.58 -514.072H1340.84M1340.84 -514.072L1682.78 146.226C1686.3 153.033 1688.14 160.588 1688.14 168.255V399.94M228.024 1635.87H774.132M228.024 1635.87V1011.2M228.024 1635.87H-38.3232M1320.24 1635.87H1640.24C1666.7 1635.87 1688.14 1614.42 1688.14 1587.96V1011.2M1320.24 1635.87L1389.56 1705.19C1398.55 1714.17 1403.59 1726.36 1403.59 1739.06V1873.47M1320.24 1635.87H774.132M228.024 399.94H112.096M228.024 399.94V639.461M228.024 399.94H667.785M228.024 399.94V309.88M1688.14 399.94H1921.92M1688.14 399.94V639.461M1688.14 399.94H1340.84M-3.83223 399.94H112.096M112.096 399.94V639.461M112.096 399.94V309.88M112.096 639.461L-3.83223 755.389M112.096 639.461H228.024M228.024 639.461V1011.2M228.024 639.461H447.904H667.785M1688.14 639.461H1921.92M1688.14 639.461H1340.84M1688.14 639.461V1011.2M774.132 1635.87V1873.47M774.132 1635.87V1082.78C774.132 1070.07 769.085 1057.89 760.101 1048.9L722.395 1011.2M667.785 639.461V936.744C667.785 949.449 672.832 961.634 681.815 970.618L722.395 1011.2M667.785 639.461V399.94M667.785 639.461H1098.92M667.785 399.94H1098.92M1007.9 -514.072H976.01C963.305 -514.072 951.121 -509.025 942.137 -500.041L242.055 200.041C233.071 209.025 228.024 221.209 228.024 233.914V309.88M1007.9 -514.072V-175.591C1007.9 -162.886 1012.95 -150.702 1021.94 -141.718L1084.89 -78.7615C1093.88 -69.7777 1098.92 -57.5931 1098.92 -44.8881V399.94M1098.92 399.94V639.461M1098.92 399.94H1340.84M1098.92 639.461H1340.84M1340.84 -425.928V399.94M1340.84 399.94V639.461M228.024 1011.2H722.395M228.024 1011.2H-30.6586M722.395 1011.2H1688.14M112.096 309.88L-14.8502 182.934M112.096 309.88H228.024" stroke="#333333" stroke-width="23.9521" stroke-linecap="round"/>
<path d="M1097.96 252.395H1735.64C1743.26 252.395 1750.57 249.367 1755.96 243.976L1949.7 50.2393" stroke="#333333" stroke-width="19.1617" stroke-linecap="round"/>
<path d="M1078.8 647.126L1078.8 1001.21C1078.8 1008.83 1075.77 1016.14 1070.38 1021.53L988.535 1103.38C983.145 1108.77 980.116 1116.08 980.116 1123.7L980.116 1239.22M1165.03 1871.56L1165.03 1739.34M1165.03 1739.34L1008.86 1739.34C992.985 1739.34 980.116 1726.47 980.116 1710.6L980.116 1239.22M1165.03 1739.34L1165.03 1489.28M1165.03 647.126L1165.03 1013.11L1165.03 1239.22M980.116 1239.22L779.88 1239.22M980.116 1239.22L1165.03 1239.22M1165.03 1239.22L1678.15 1239.22C1685.78 1239.22 1693.09 1242.25 1698.48 1247.64L1950.66 1499.82M1165.03 1239.22L1165.03 1489.28M1165.03 1489.28L215.019 1489.28C207.396 1489.28 200.086 1486.25 194.695 1480.86L-15.8084 1270.36" stroke="#333333" stroke-width="19.1617" stroke-linecap="round"/>
<path d="M668.742 399.94L668.742 242.265C668.742 234.642 665.714 227.331 660.324 221.941L443.114 4.73092" stroke="#333333" stroke-width="19.1617" stroke-linecap="round"/>
<path d="M-23.9521 931.677L106.552 801.173C111.942 795.783 119.253 792.754 126.876 792.754H670.659" stroke="#333333" stroke-width="19.1617" stroke-linecap="round"/>
<path d="M332.472 1486.41L332.472 1141.5M332.472 1141.5L438.803 1141.5M332.472 1141.5L332.472 309.88M676.408 1141.5L676.407 1015.03M676.408 1141.5L557.605 1141.5M676.408 1141.5L676.408 1216.23C676.408 1229.46 687.131 1240.18 700.36 1240.18L777.485 1240.18M438.803 1141.5L438.803 394.191L438.803 309.88M438.803 1141.5L557.605 1141.5M438.803 309.88L332.472 309.88M438.803 309.88L557.605 309.88M332.472 309.88L332.472 237.355C332.472 231.003 329.949 224.91 325.457 220.418L271.651 166.612L156.956 51.9173C152.464 47.4254 149.94 41.3331 149.94 34.9806L149.94 -31.1978M332.472 309.88L226.108 309.88M557.605 1141.5L557.605 1015.03L557.605 790.838L557.605 641.377L557.605 394.191L557.605 309.88M557.605 309.88L557.605 256.568C557.605 250.215 555.081 244.123 550.59 239.631L376.527 65.5684L286.776 -24.1824C282.284 -28.6742 276.192 -31.1978 269.839 -31.1978L149.94 -31.1978M149.94 -31.1978L49.8205 -31.1978M49.8205 -31.1978L49.8205 -105.928M49.8205 -31.1978L49.8205 33.9518M233.773 217.904C227.641 213.305 108.583 93.353 49.8205 33.9518M49.8205 33.9518L-9.58069 33.9518" stroke="#333333" stroke-width="9.58084" stroke-linecap="round"/>
<path d="M848.607 -1.93538C842.749 -7.79324 842.749 -17.2907 848.607 -23.1486L870.779 -45.321C876.84 -51.3819 886.739 -51.1404 892.497 -44.7912L935.493 2.61878C938.336 5.75393 942.372 7.54199 946.604 7.54199L1013.5 7.54199C1021.78 7.54199 1028.5 14.2577 1028.5 22.542L1028.5 94.5C1028.5 102.784 1021.78 109.5 1013.5 109.5L966.255 109.5C962.277 109.5 958.462 107.92 955.649 105.107L848.607 -1.93538Z" fill="#384E31"/>
<rect x="1212" y="-7" width="98" height="162" rx="15" fill="#384E31"/>
<path d="M1255.25 59.3815C1255.25 52.9993 1259.35 47.3411 1265.42 45.36L1284.42 39.1559C1293.96 36.0427 1303.75 43.1477 1303.75 53.1774V79.7842C1303.75 90.8537 1292.01 97.9786 1282.19 92.8685L1263.19 82.9808C1258.31 80.4413 1255.25 75.3974 1255.25 69.8965V59.3815Z" fill="#2B6178" stroke="#143A4B" stroke-width="0.5"/>
<circle cx="1287" cy="74" r="7.75" fill="#384E31" stroke="#143A4B" stroke-width="0.5"/>
<path d="M717 883C717 874.716 723.716 868 732 868H885.58C895.991 868 903.236 878.346 899.676 888.129L837.092 1060.13C834.935 1066.06 829.302 1070 822.996 1070H777.374C773.301 1070 769.403 1068.34 766.576 1065.41L721.202 1018.36C718.506 1015.56 717 1011.83 717 1007.95V883Z" fill="#384E31"/>
<rect x="1444" y="723" width="116" height="93" rx="15" fill="#384E31"/>
<path d="M5.60658 213.107L120.107 327.607C122.92 330.42 126.735 332 130.713 332H192C200.284 332 207 325.284 207 317V298.5C207 290.216 200.284 283.5 192 283.5H172.213C168.235 283.5 164.42 281.92 161.607 279.107L74.3934 191.893C71.5804 189.08 67.765 187.5 63.7868 187.5H16.2132C2.84963 187.5 -3.8429 203.657 5.60658 213.107Z" fill="#384E31"/>
<path d="M612.607 159.844C606.749 153.986 606.749 144.489 612.607 138.631L667.012 84.2255C672.87 78.3676 682.368 78.3676 688.226 84.2255L824.607 220.607C827.42 223.42 829 227.235 829 231.213L829 280.119C829 288.403 822.285 295.119 814 295.119L734.5 295.119C726.216 295.119 719.5 288.403 719.5 280.119L719.5 272.951C719.5 268.973 717.92 265.157 715.107 262.344L612.607 159.844Z" fill="#384E31"/>
</g>
<defs>
<clipPath id="clip0_181192_17007">
<rect width="1920" height="1080" fill="white"/>
</clipPath>
</defs>
</svg>
