<svg width="809" height="104" viewBox="0 0 809 104" fill="none" xmlns="http://www.w3.org/2000/svg">
<path d="M54.3281 90.4219L19.9688 57.8906L32.7656 48.7031L76.3125 90.4219H54.3281ZM8.25 47.8125H23.6719L51.8906 22.1719H74.8594L28.6875 62.9531H8.25V47.8125ZM0 90.4219V22.1719H16.5469V90.4219H0Z" fill="url(#paint0_radial_179623_3672)"/>
<path d="M80.6025 90.4219V22.1719H121.196C128.29 22.1719 133.681 23.6875 137.368 26.7188C141.087 29.7188 142.946 33.9531 142.946 39.4219C142.946 43.3594 141.946 46.6094 139.946 49.1719C137.946 51.7344 135.478 53.5 132.54 54.4688V54.6562C136.603 55.2812 139.931 56.9375 142.524 59.625C145.118 62.2812 146.415 66.0312 146.415 70.875C146.415 77.25 144.134 82.1094 139.571 85.4531C135.009 88.7656 129.243 90.4219 122.274 90.4219H80.6025ZM96.6806 77.625H118.056C121.337 77.625 124.071 76.9531 126.259 75.6094C128.446 74.2344 129.54 72 129.54 68.9062C129.54 66.25 128.446 64.2812 126.259 63C124.071 61.7188 121.337 61.0781 118.056 61.0781H96.6806V77.625ZM96.6806 50.5312H117.165C120.353 50.5312 122.806 49.875 124.524 48.5625C126.274 47.2188 127.149 45.3281 127.149 42.8906C127.149 40.4531 126.274 38.6094 124.524 37.3594C122.806 36.1094 120.368 35.4844 117.212 35.4844H96.6806V50.5312Z" fill="url(#paint1_radial_179623_3672)"/>
<path d="M157.268 90.4219V22.1719H217.643V36.9375H172.83V49.3125H213.471V62.4375H172.83V76.125H218.346V90.4219H157.268Z" fill="url(#paint2_radial_179623_3672)"/>
<path d="M224.604 56.7656V55.7812C224.604 44.1875 228.667 35.4531 236.792 29.5781C244.948 23.7031 255.589 20.7656 268.714 20.7656C281.557 20.7656 291.229 23.0312 297.729 27.5625C304.229 32.0625 308.245 38.7344 309.776 47.5781L310.011 49.2656H293.417L293.182 47.9531C292.089 43.8281 289.729 40.5312 286.104 38.0625C282.511 35.5938 276.87 34.3594 269.182 34.3594C260.682 34.3594 254.073 36.2344 249.354 39.9844C244.636 43.7031 242.276 48.9219 242.276 55.6406V56.8125C242.276 63.875 244.698 69.25 249.542 72.9375C254.386 76.5938 260.932 78.4219 269.182 78.4219C277.057 78.4219 282.823 77.2969 286.479 75.0469C290.167 72.7656 292.432 69.4375 293.276 65.0625L293.511 63.5156H310.011L309.823 65.2969C308.792 74.0156 305.042 80.625 298.573 85.125C292.104 89.5938 282.214 91.8281 268.901 91.8281C255.432 91.8281 244.682 88.8438 236.651 82.875C228.62 76.875 224.604 68.1719 224.604 56.7656Z" fill="url(#paint3_radial_179623_3672)"/>
<path d="M311.629 37.2188V22.1719H384.285V37.2188H356.348V90.4219H339.566V37.2188H311.629Z" fill="url(#paint4_radial_179623_3672)"/>
<path d="M386.934 56.7656V55.7812C386.934 44.1875 390.997 35.4531 399.122 29.5781C407.278 23.7031 417.919 20.7656 431.044 20.7656C443.888 20.7656 453.559 23.0312 460.059 27.5625C466.559 32.0625 470.575 38.7344 472.106 47.5781L472.341 49.2656H455.747L455.513 47.9531C454.419 43.8281 452.059 40.5312 448.434 38.0625C444.841 35.5938 439.2 34.3594 431.513 34.3594C423.013 34.3594 416.403 36.2344 411.684 39.9844C406.966 43.7031 404.606 48.9219 404.606 55.6406V56.8125C404.606 63.875 407.028 69.25 411.872 72.9375C416.716 76.5938 423.263 78.4219 431.513 78.4219C439.388 78.4219 445.153 77.2969 448.809 75.0469C452.497 72.7656 454.763 69.4375 455.606 65.0625L455.841 63.5156H472.341L472.153 65.2969C471.122 74.0156 467.372 80.625 460.903 85.125C454.434 89.5938 444.544 91.8281 431.231 91.8281C417.763 91.8281 407.013 88.8438 398.981 82.875C390.95 76.875 386.934 68.1719 386.934 56.7656Z" fill="url(#paint5_radial_179623_3672)"/>
<path d="M481.646 90.4219V22.1719H551.396V90.4219H534.849V37.1719H498.193V90.4219H481.646Z" fill="url(#paint6_radial_179623_3672)"/>
<path d="M567.686 90.4219V22.1719H628.061V36.9375H583.249V49.3125H623.889V62.4375H583.249V76.125H628.764V90.4219H567.686Z" fill="url(#paint7_radial_179623_3672)"/>
<path d="M712.32 90.4219H695.82L695.773 49.3594C695.773 48.4531 695.789 47.7344 695.82 47.2031C695.883 46.6406 695.898 46.1094 695.867 45.6094H695.679C695.461 46.0469 695.164 46.5469 694.789 47.1094C694.414 47.6719 693.804 48.3438 692.961 49.125L660.289 90.4219H640.976V22.1719H657.523V62.3906C657.523 63.1719 657.508 63.8125 657.476 64.3125C657.476 64.8125 657.476 65.4375 657.476 66.1875H657.711C657.961 65.5625 658.258 65.0938 658.601 64.7812C658.945 64.4375 659.508 63.8438 660.289 63L693.008 22.1719H712.32V90.4219ZM676.601 7.6875C678.82 7.6875 680.758 7.04688 682.414 5.76562C684.101 4.48438 685.383 2.5625 686.258 0L696.758 4.17188C694.914 9.01562 692.258 12.4844 688.789 14.5781C685.32 16.6406 681.258 17.6719 676.601 17.6719C671.914 17.6719 667.836 16.6406 664.367 14.5781C660.929 12.4844 658.226 9.03125 656.258 4.21875L666.992 0C667.929 2.5625 669.195 4.48438 670.789 5.76562C672.414 7.04688 674.351 7.6875 676.601 7.6875Z" fill="url(#paint8_radial_179623_3672)"/>
<path d="M722.657 56.7656V55.7812C722.657 44.1875 726.719 35.4531 734.844 29.5781C743.001 23.7031 753.641 20.7656 766.766 20.7656C779.61 20.7656 789.282 23.0312 795.782 27.5625C802.282 32.0625 806.297 38.7344 807.829 47.5781L808.063 49.2656H791.469L791.235 47.9531C790.141 43.8281 787.782 40.5312 784.157 38.0625C780.563 35.5938 774.922 34.3594 767.235 34.3594C758.735 34.3594 752.126 36.2344 747.407 39.9844C742.688 43.7031 740.329 48.9219 740.329 55.6406V56.8125C740.329 63.875 742.751 69.25 747.594 72.9375C752.438 76.5938 758.985 78.4219 767.235 78.4219C775.11 78.4219 780.876 77.2969 784.532 75.0469C788.219 72.7656 790.485 69.4375 791.329 65.0625L791.563 63.5156H808.063L807.876 65.2969C806.844 74.0156 803.094 80.625 796.626 85.125C790.157 89.5938 780.266 91.8281 766.954 91.8281C753.485 91.8281 742.735 88.8438 734.704 82.875C726.672 76.875 722.657 68.1719 722.657 56.7656Z" fill="url(#paint9_radial_179623_3672)"/>
<defs>
<radialGradient id="paint0_radial_179623_3672" cx="0" cy="0" r="1" gradientUnits="userSpaceOnUse" gradientTransform="translate(-8.62505 105.851) rotate(-6.41676) scale(1270.58 282.463)">
<stop stop-color="#3A80F7"/>
<stop offset="1" stop-color="#86F6E5"/>
</radialGradient>
<radialGradient id="paint1_radial_179623_3672" cx="0" cy="0" r="1" gradientUnits="userSpaceOnUse" gradientTransform="translate(-8.62505 105.851) rotate(-6.41676) scale(1270.58 282.463)">
<stop stop-color="#3A80F7"/>
<stop offset="1" stop-color="#86F6E5"/>
</radialGradient>
<radialGradient id="paint2_radial_179623_3672" cx="0" cy="0" r="1" gradientUnits="userSpaceOnUse" gradientTransform="translate(-8.62505 105.851) rotate(-6.41676) scale(1270.58 282.463)">
<stop stop-color="#3A80F7"/>
<stop offset="1" stop-color="#86F6E5"/>
</radialGradient>
<radialGradient id="paint3_radial_179623_3672" cx="0" cy="0" r="1" gradientUnits="userSpaceOnUse" gradientTransform="translate(-8.62505 105.851) rotate(-6.41676) scale(1270.58 282.463)">
<stop stop-color="#3A80F7"/>
<stop offset="1" stop-color="#86F6E5"/>
</radialGradient>
<radialGradient id="paint4_radial_179623_3672" cx="0" cy="0" r="1" gradientUnits="userSpaceOnUse" gradientTransform="translate(-8.62505 105.851) rotate(-6.41676) scale(1270.58 282.463)">
<stop stop-color="#3A80F7"/>
<stop offset="1" stop-color="#86F6E5"/>
</radialGradient>
<radialGradient id="paint5_radial_179623_3672" cx="0" cy="0" r="1" gradientUnits="userSpaceOnUse" gradientTransform="translate(-8.62505 105.851) rotate(-6.41676) scale(1270.58 282.463)">
<stop stop-color="#3A80F7"/>
<stop offset="1" stop-color="#86F6E5"/>
</radialGradient>
<radialGradient id="paint6_radial_179623_3672" cx="0" cy="0" r="1" gradientUnits="userSpaceOnUse" gradientTransform="translate(-8.62505 105.851) rotate(-6.41676) scale(1270.58 282.463)">
<stop stop-color="#3A80F7"/>
<stop offset="1" stop-color="#86F6E5"/>
</radialGradient>
<radialGradient id="paint7_radial_179623_3672" cx="0" cy="0" r="1" gradientUnits="userSpaceOnUse" gradientTransform="translate(-8.62505 105.851) rotate(-6.41676) scale(1270.58 282.463)">
<stop stop-color="#3A80F7"/>
<stop offset="1" stop-color="#86F6E5"/>
</radialGradient>
<radialGradient id="paint8_radial_179623_3672" cx="0" cy="0" r="1" gradientUnits="userSpaceOnUse" gradientTransform="translate(-8.62505 105.851) rotate(-6.41676) scale(1270.58 282.463)">
<stop stop-color="#3A80F7"/>
<stop offset="1" stop-color="#86F6E5"/>
</radialGradient>
<radialGradient id="paint9_radial_179623_3672" cx="0" cy="0" r="1" gradientUnits="userSpaceOnUse" gradientTransform="translate(-8.62505 105.851) rotate(-6.41676) scale(1270.58 282.463)">
<stop stop-color="#3A80F7"/>
<stop offset="1" stop-color="#86F6E5"/>
</radialGradient>
</defs>
</svg>
