<?xml version="1.0" standalone="no"?>
<!DOCTYPE svg PUBLIC "-//W3C//DTD SVG 20010904//EN"
 "http://www.w3.org/TR/2001/REC-SVG-20010904/DTD/svg10.dtd">
<svg version="1.0" xmlns="http://www.w3.org/2000/svg"
 width="700.000000pt" height="700.000000pt" viewBox="0 0 700.000000 700.000000"
 preserveAspectRatio="xMidYMid meet">
<metadata>
Created by potrace 1.14, written by Peter Selinger 2001-2017
</metadata>
<g transform="translate(0.000000,700.000000) scale(0.100000,-0.100000)"
fill="#000000" stroke="none">
<path d="M1580 6989 c-130 -13 -243 -38 -375 -80 -664 -216 -1126 -795 -1195
-1498 -14 -145 -14 -3708 1 -3839 66 -611 416 -1115 966 -1391 177 -89 380
-147 595 -170 131 -15 3694 -15 3839 -1 221 22 409 75 604 170 560 273 921
802 975 1430 8 87 10 694 7 1975 -3 1839 -4 1851 -25 1960 -56 289 -155 522
-316 739 -306 416 -766 669 -1282 706 -172 12 -3671 11 -3794 -1z m1240 -2674
l0 -485 138 0 138 0 535 485 534 485 440 0 440 0 -30 -29 c-17 -16 -325 -289
-685 -606 -360 -316 -656 -579 -658 -584 -2 -6 874 -851 1368 -1319 l65 -61
-422 -1 -423 0 -550 520 -550 520 -170 0 -170 0 0 -520 0 -520 -315 0 -315 0
0 1300 0 1300 315 0 315 0 0 -485z"/>
</g>
</svg>
